<?xml version="1.0" encoding="UTF-8"?>
<!DOCTYPE svg PUBLIC "-//W3C//DTD SVG 1.1//EN" "http://www.w3.org/Graphics/SVG/1.1/DTD/svg11.dtd">
<svg xmlns="http://www.w3.org/2000/svg" version="1.1" width="512px" height="512px" style="shape-rendering:geometricPrecision; text-rendering:geometricPrecision; image-rendering:optimizeQuality; fill-rule:evenodd; clip-rule:evenodd" xmlns:xlink="http://www.w3.org/1999/xlink">
<g><path style="opacity:0.979" fill="#ffd800" d="M 8.5,-0.5 C 14.8333,-0.5 21.1667,-0.5 27.5,-0.5C 51.6288,3.89181 70.9621,15.8918 85.5,35.5C 71.2648,36.1824 56.9315,36.8491 42.5,37.5C 31.835,32.1671 20.5016,29.3337 8.5,29C 4.31481,27.3122 1.31481,24.4788 -0.5,20.5C -0.5,16.5 -0.5,12.5 -0.5,8.5C 0.803551,7.01307 1.97022,5.3464 3,3.5C 5.01533,2.30342 6.84866,0.970083 8.5,-0.5 Z"/></g>
<g><path style="opacity:0.972" fill="#ffd100" d="M 85.5,35.5 C 91.5781,42.363 95.5781,50.363 97.5,59.5C 86.5,59.5 75.5,59.5 64.5,59.5C 58.8333,50.5 51.5,43.1667 42.5,37.5C 56.9315,36.8491 71.2648,36.1824 85.5,35.5 Z"/></g>
<g><path style="opacity:0.975" fill="#ffcb00" d="M 64.5,59.5 C 75.5,59.5 86.5,59.5 97.5,59.5C 100.501,67.4823 102.501,75.8156 103.5,84.5C 93.4743,86.1938 83.141,87.1938 72.5,87.5C 71.3833,77.6962 68.7166,68.3629 64.5,59.5 Z"/></g>
<g><path style="opacity:0.97" fill="#ffc400" d="M 103.5,84.5 C 105.614,92.3809 107.614,100.381 109.5,108.5C 98.8333,109.167 88.1667,109.833 77.5,110.5C 76.2117,102.723 74.5451,95.0564 72.5,87.5C 83.141,87.1938 93.4743,86.1938 103.5,84.5 Z"/></g>
<g><path style="opacity:0.972" fill="#febe00" d="M 109.5,108.5 C 111.009,116.87 112.676,125.203 114.5,133.5C 103.915,132.524 93.2483,132.191 82.5,132.5C 80.8296,125.145 79.163,117.812 77.5,110.5C 88.1667,109.833 98.8333,109.167 109.5,108.5 Z"/></g>
<g><path style="opacity:0.993" fill="#feb600" d="M 82.5,132.5 C 93.2483,132.191 103.915,132.524 114.5,133.5C 115.518,139.092 116.851,144.592 118.5,150C 246.5,150.333 374.5,150.667 502.5,151C 505.26,152.179 507.26,154.012 508.5,156.5C 368.237,155.502 227.903,155.168 87.5,155.5C 85.7064,147.866 84.0397,140.199 82.5,132.5 Z"/></g>
<g><path style="opacity:0.998" fill="#feb200" d="M 87.5,155.5 C 227.903,155.168 368.237,155.502 508.5,156.5C 509.728,157.306 510.728,158.306 511.5,159.5C 511.5,163.5 511.5,167.5 511.5,171.5C 510.167,174.833 508.833,178.167 507.5,181.5C 496.833,182.833 486.167,182.833 475.5,181.5C 417.168,180.833 358.668,180.5 300,180.5C 241.163,180.5 182.663,181.167 124.5,182.5C 114.167,182.5 103.833,182.5 93.5,182.5C 91.2493,173.583 89.2493,164.583 87.5,155.5 Z"/></g>
<g><path style="opacity:0.976" fill="#feab00" d="M 475.5,181.5 C 486.167,182.833 496.833,182.833 507.5,181.5C 505.944,189.824 503.61,197.824 500.5,205.5C 489.986,205.828 479.653,205.494 469.5,204.5C 471.091,196.728 473.091,189.061 475.5,181.5 Z"/></g>
<g><path style="opacity:0.976" fill="#feab00" d="M 93.5,182.5 C 103.833,182.5 114.167,182.5 124.5,182.5C 126.785,189.913 128.451,197.58 129.5,205.5C 119.167,205.5 108.833,205.5 98.5,205.5C 96.3907,198.048 94.724,190.381 93.5,182.5 Z"/></g>
<g><path style="opacity:0.979" fill="#fea500" d="M 98.5,205.5 C 108.833,205.5 119.167,205.5 129.5,205.5C 131.609,212.952 133.276,220.619 134.5,228.5C 124.167,228.5 113.833,228.5 103.5,228.5C 101.215,221.087 99.5487,213.42 98.5,205.5 Z"/></g>
<g><path style="opacity:0.977" fill="#fea500" d="M 469.5,204.5 C 479.653,205.494 489.986,205.828 500.5,205.5C 498.909,213.272 496.909,220.939 494.5,228.5C 483.833,228.5 473.167,228.5 462.5,228.5C 464.231,220.227 466.565,212.227 469.5,204.5 Z"/></g>
<g><path style="opacity:0.958" fill="#fea400" d="M 226.5,228.5 C 216.167,228.5 205.833,228.5 195.5,228.5C 195.304,213.196 202.637,207.362 217.5,211C 223.785,215.069 226.785,220.902 226.5,228.5 Z"/></g>
<g><path style="opacity:0.96" fill="#fea400" d="M 315.5,228.5 C 305.5,228.5 295.5,228.5 285.5,228.5C 285.304,213.196 292.637,207.362 307.5,211C 314.071,214.979 316.737,220.812 315.5,228.5 Z"/></g>
<g><path style="opacity:0.952" fill="#fea400" d="M 405.5,229.5 C 395.249,228.525 384.915,228.192 374.5,228.5C 375.185,213.302 382.852,207.469 397.5,211C 404.374,215.256 407.04,221.422 405.5,229.5 Z"/></g>
<g><path style="opacity:0.98" fill="#fe9f00" d="M 103.5,228.5 C 113.833,228.5 124.167,228.5 134.5,228.5C 136.545,236.058 138.212,243.725 139.5,251.5C 129.167,251.5 118.833,251.5 108.5,251.5C 106.215,244.083 104.548,236.416 103.5,228.5 Z"/></g>
<g><path style="opacity:0.974" fill="#fe9f00" d="M 195.5,228.5 C 205.833,228.5 216.167,228.5 226.5,228.5C 228.044,235.763 229.378,243.096 230.5,250.5C 220.249,251.475 209.915,251.808 199.5,251.5C 197.848,243.923 196.515,236.256 195.5,228.5 Z"/></g>
<g><path style="opacity:1" fill="#fe9f00" d="M 285.5,228.5 C 295.5,228.5 305.5,228.5 315.5,228.5C 315.5,236.167 315.5,243.833 315.5,251.5C 305.5,251.5 295.5,251.5 285.5,251.5C 285.5,243.833 285.5,236.167 285.5,228.5 Z"/></g>
<g><path style="opacity:0.977" fill="#fe9f00" d="M 374.5,228.5 C 384.915,228.192 395.249,228.525 405.5,229.5C 404.378,236.904 403.044,244.237 401.5,251.5C 391.167,251.5 380.833,251.5 370.5,251.5C 371.515,243.744 372.848,236.077 374.5,228.5 Z"/></g>
<g><path style="opacity:0.974" fill="#fe9f00" d="M 462.5,228.5 C 473.167,228.5 483.833,228.5 494.5,228.5C 492.461,236.011 490.127,243.345 487.5,250.5C 476.833,251.167 466.167,251.833 455.5,252.5C 457.231,244.227 459.565,236.227 462.5,228.5 Z"/></g>
<g><path style="opacity:0.977" fill="#fe9900" d="M 230.5,250.5 C 232.267,259.767 233.6,269.101 234.5,278.5C 223.909,279.105 213.575,278.438 203.5,276.5C 201.632,268.288 200.298,259.955 199.5,251.5C 209.915,251.808 220.249,251.475 230.5,250.5 Z"/></g>
<g><path style="opacity:0.973" fill="#fe9900" d="M 487.5,250.5 C 485.408,260.097 482.741,269.43 479.5,278.5C 468.833,278.5 458.167,278.5 447.5,278.5C 449.876,269.641 452.543,260.974 455.5,252.5C 466.167,251.833 476.833,251.167 487.5,250.5 Z"/></g>
<g><path style="opacity:0.972" fill="#fe9900" d="M 108.5,251.5 C 118.833,251.5 129.167,251.5 139.5,251.5C 141.751,260.417 143.751,269.417 145.5,278.5C 134.986,278.172 124.653,278.506 114.5,279.5C 111.881,270.415 109.881,261.082 108.5,251.5 Z"/></g>
<g><path style="opacity:1" fill="#fe9900" d="M 285.5,251.5 C 295.5,251.5 305.5,251.5 315.5,251.5C 315.5,260.5 315.5,269.5 315.5,278.5C 305.5,278.5 295.5,278.5 285.5,278.5C 285.5,269.5 285.5,260.5 285.5,251.5 Z"/></g>
<g><path style="opacity:0.974" fill="#fe9900" d="M 370.5,251.5 C 380.833,251.5 391.167,251.5 401.5,251.5C 400.383,260.866 399.05,270.199 397.5,279.5C 387.249,278.525 376.915,278.192 366.5,278.5C 367.293,269.408 368.627,260.408 370.5,251.5 Z"/></g>
<g><path style="opacity:0.976" fill="#fe9200" d="M 203.5,276.5 C 213.575,278.438 223.909,279.105 234.5,278.5C 236.353,285.949 237.687,293.615 238.5,301.5C 227.909,300.895 217.575,301.562 207.5,303.5C 206.058,294.517 204.725,285.517 203.5,276.5 Z"/></g>
<g><path style="opacity:0.98" fill="#fe9200" d="M 145.5,278.5 C 147.294,286.138 148.961,293.805 150.5,301.5C 139.752,301.809 129.085,301.476 118.5,300.5C 116.691,293.597 115.358,286.597 114.5,279.5C 124.653,278.506 134.986,278.172 145.5,278.5 Z"/></g>
<g><path style="opacity:1" fill="#fe9200" d="M 285.5,278.5 C 295.5,278.5 305.5,278.5 315.5,278.5C 315.5,286.167 315.5,293.833 315.5,301.5C 305.5,301.5 295.5,301.5 285.5,301.5C 285.5,293.833 285.5,286.167 285.5,278.5 Z"/></g>
<g><path style="opacity:0.977" fill="#fe9200" d="M 366.5,278.5 C 376.915,278.192 387.249,278.525 397.5,279.5C 396.167,286.833 394.833,294.167 393.5,301.5C 383.167,301.5 372.833,301.5 362.5,301.5C 363.313,293.615 364.647,285.949 366.5,278.5 Z"/></g>
<g><path style="opacity:0.974" fill="#fe9200" d="M 447.5,278.5 C 458.167,278.5 468.833,278.5 479.5,278.5C 477.536,286.712 475.203,294.712 472.5,302.5C 462.167,301.833 451.833,301.167 441.5,300.5C 443.192,293.063 445.192,285.73 447.5,278.5 Z"/></g>
<g><path style="opacity:0.971" fill="#fe8c00" d="M 118.5,300.5 C 129.085,301.476 139.752,301.809 150.5,301.5C 151.915,308.912 153.582,316.246 155.5,323.5C 144.833,324.167 134.167,324.833 123.5,325.5C 121.962,317.141 120.295,308.808 118.5,300.5 Z"/></g>
<g><path style="opacity:0.976" fill="#fe8c00" d="M 441.5,300.5 C 451.833,301.167 462.167,301.833 472.5,302.5C 470.5,310.167 468.5,317.833 466.5,325.5C 455.915,324.524 445.248,324.191 434.5,324.5C 436.233,316.22 438.566,308.22 441.5,300.5 Z"/></g>
<g><path style="opacity:0.975" fill="#fe8c00" d="M 238.5,301.5 C 240.297,308.028 240.797,314.695 240,321.5C 235.39,330.595 228.223,333.429 218.5,330C 216.376,328.878 214.543,327.378 213,325.5C 210.208,318.417 208.374,311.083 207.5,303.5C 217.575,301.562 227.909,300.895 238.5,301.5 Z"/></g>
<g><path style="opacity:0.994" fill="#fe8c00" d="M 285.5,301.5 C 295.5,301.5 305.5,301.5 315.5,301.5C 315.666,308.175 315.5,314.842 315,321.5C 310.39,330.595 303.223,333.429 293.5,330C 289.942,328.108 287.442,325.275 286,321.5C 285.5,314.842 285.334,308.175 285.5,301.5 Z"/></g>
<g><path style="opacity:0.975" fill="#fe8c00" d="M 362.5,301.5 C 372.833,301.5 383.167,301.5 393.5,301.5C 392.841,309.793 391.008,317.793 388,325.5C 381.738,331.93 374.571,333.097 366.5,329C 363.894,327.062 362.061,324.562 361,321.5C 360.203,314.695 360.703,308.028 362.5,301.5 Z"/></g>
<g><path style="opacity:0.972" fill="#fe8600" d="M 155.5,323.5 C 157.034,333.904 161.701,342.571 169.5,349.5C 168.244,349.539 167.244,349.039 166.5,348C 160.667,347.833 154.833,347.667 149,347.5C 142.793,347.504 136.96,348.171 131.5,349.5C 127.859,341.912 125.193,333.912 123.5,325.5C 134.167,324.833 144.833,324.167 155.5,323.5 Z"/></g>
<g><path style="opacity:0.974" fill="#fe8600" d="M 434.5,324.5 C 445.248,324.191 455.915,324.524 466.5,325.5C 464.406,333.122 461.739,340.455 458.5,347.5C 446.5,347.5 434.5,347.5 422.5,347.5C 427.842,340.481 431.842,332.814 434.5,324.5 Z"/></g>
<g><path style="opacity:0.988" fill="#fe7f00" d="M 169.5,349.5 C 177.789,356.639 187.456,360.472 198.5,361C 262.5,361.667 326.5,361.667 390.5,361C 402.93,360.474 413.597,355.974 422.5,347.5C 434.5,347.5 446.5,347.5 458.5,347.5C 453.931,358.631 446.931,367.964 437.5,375.5C 336.335,374.501 235.001,374.167 133.5,374.5C 136.06,371.542 139.06,369.042 142.5,367C 137.791,361.798 134.125,355.964 131.5,349.5C 136.96,348.171 142.793,347.504 149,347.5C 154.833,347.667 160.667,347.833 166.5,348C 167.244,349.039 168.244,349.539 169.5,349.5 Z"/></g>
<g><path style="opacity:0.993" fill="#fd7a00" d="M 133.5,374.5 C 235.001,374.167 336.335,374.501 437.5,375.5C 427.252,383.647 415.585,388.814 402.5,391C 323.5,391.333 244.5,391.667 165.5,392C 160.958,392.271 157.291,394.104 154.5,397.5C 142.913,396.889 131.58,397.556 120.5,399.5C 121.961,389.574 126.295,381.241 133.5,374.5 Z"/></g>
<g><path style="opacity:0.978" fill="#fd7300" d="M 154.5,397.5 C 148.343,408.843 151.343,416.51 163.5,420.5C 149.931,421.822 136.265,421.822 122.5,420.5C 121.71,419.391 121.21,418.058 121,416.5C 120.501,410.843 120.334,405.176 120.5,399.5C 131.58,397.556 142.913,396.889 154.5,397.5 Z"/></g>
<g><path style="opacity:0.997" fill="#fd6d00" d="M 122.5,420.5 C 136.265,421.822 149.931,421.822 163.5,420.5C 266.127,421.329 368.793,421.829 471.5,422C 479.915,426.348 482.748,433.181 480,442.5C 479.623,443.942 478.79,444.942 477.5,445.5C 365.668,444.5 253.668,444.167 141.5,444.5C 131.842,439.209 125.508,431.209 122.5,420.5 Z"/></g>
<g><path style="opacity:0.983" fill="#fd6700" d="M 141.5,444.5 C 253.668,444.167 365.668,444.5 477.5,445.5C 476.26,447.988 474.26,449.821 471.5,451C 463.833,451.333 456.167,451.667 448.5,452C 450.291,458.33 450.957,464.83 450.5,471.5C 440.167,471.5 429.833,471.5 419.5,471.5C 420.849,457.348 414.515,451.181 400.5,453C 393.468,456.226 390.468,461.726 391.5,469.5C 381.76,471.436 371.76,472.102 361.5,471.5C 361.737,472.791 361.404,473.791 360.5,474.5C 360.334,468.491 360.501,462.491 361,456.5C 361.273,454.899 361.773,453.399 362.5,452C 321.167,451.333 279.833,451.333 238.5,452C 240.291,458.33 240.957,464.83 240.5,471.5C 230.167,471.5 219.833,471.5 209.5,471.5C 210.849,457.348 204.515,451.181 190.5,453C 183.468,456.226 180.468,461.726 181.5,469.5C 171.76,471.436 161.76,472.102 151.5,471.5C 151.737,472.791 151.404,473.791 150.5,474.5C 150.098,466.055 150.765,457.721 152.5,449.5C 148.148,449.154 144.481,447.488 141.5,444.5 Z"/></g>
<g><path style="opacity:0.98" fill="#fd6000" d="M 181.5,469.5 C 185.195,479.677 192.195,482.844 202.5,479C 205.412,476.985 207.745,474.485 209.5,471.5C 219.833,471.5 230.167,471.5 240.5,471.5C 239.653,480.047 236.653,487.714 231.5,494.5C 207.661,494.169 183.994,494.502 160.5,495.5C 155.321,489.471 151.987,482.471 150.5,474.5C 151.404,473.791 151.737,472.791 151.5,471.5C 161.76,472.102 171.76,471.436 181.5,469.5 Z"/></g>
<g><path style="opacity:0.98" fill="#fd6000" d="M 391.5,469.5 C 395.195,479.677 402.195,482.844 412.5,479C 415.412,476.985 417.745,474.485 419.5,471.5C 429.833,471.5 440.167,471.5 450.5,471.5C 449.653,480.047 446.653,487.714 441.5,494.5C 417.661,494.169 393.994,494.502 370.5,495.5C 365.321,489.471 361.987,482.471 360.5,474.5C 361.404,473.791 361.737,472.791 361.5,471.5C 371.76,472.102 381.76,471.436 391.5,469.5 Z"/></g>
<g><path style="opacity:0.964" fill="#fd5b00" d="M 231.5,494.5 C 224.43,502.696 215.764,508.362 205.5,511.5C 198.833,511.5 192.167,511.5 185.5,511.5C 175.62,508.627 167.287,503.293 160.5,495.5C 183.994,494.502 207.661,494.169 231.5,494.5 Z"/></g>
<g><path style="opacity:0.964" fill="#fd5b00" d="M 441.5,494.5 C 434.43,502.696 425.764,508.362 415.5,511.5C 408.833,511.5 402.167,511.5 395.5,511.5C 385.62,508.627 377.287,503.293 370.5,495.5C 393.994,494.502 417.661,494.169 441.5,494.5 Z"/></g>
</svg>
